PathFileType	4	(X/Y/Z)	Walk6.trc
DataRate	CameraRate	NumFrames	NumMarkers	Units	OrigDataRate	OrigDataStartFrame	OrigNumFrames
200.000000	200.000000	4	58	mm	200.000000	331	562
Frame#	Times		RBHD		RASI		RACR1		RUA1		RFA1		RCAR		C7		LFA1		RElbow		RTH3		RTH2		LElbowM		RTB3		LTH2		RTH1		RTB1		RLFC		RMT1		RTB2		RMT5		RTB4		LACR1		LTH3		LElbow		RWRR		LTH4		LWRU		LPSI		RPSI		LTB1		T10		LWRR		LLFC		RWRU		LBHD		LTB3		LTB2		RFHD		LTH1		LTB4		LMT1		LFHD		RBack		LMMAL		RTH4		LASI		LCAL		LLMAL		CLAV		LCAR		LMT5		RLMAL		LToe		RToe		RMMAL		LUA1		RElbowM		RCAL
			X1	Y1	Z1	X2	Y2	Z2	X3	Y3	Z3	X4	Y4	Z4	X5	Y5	Z5	X6	Y6	Z6	X7	Y7	Z7	X8	Y8	Z8	X9	Y9	Z9	X10	Y10	Z10	X11	Y11	Z11	X12	Y12	Z12	X13	Y13	Z13	X14	Y14	Z14	X15	Y15	Z15	X16	Y16	Z16	X17	Y17	Z17	X18	Y18	Z18	X19	Y19	Z19	X20	Y20	Z20	X21	Y21	Z21	X22	Y22	Z22	X23	Y23	Z23	X24	Y24	Z24	X25	Y25	Z25	X26	Y26	Z26	X27	Y27	Z27	X28	Y28	Z28	X29	Y29	Z29	X30	Y30	Z30	X31	Y31	Z31	X32	Y32	Z32	X33	Y33	Z33	X34	Y34	Z34	X35	Y35	Z35	X36	Y36	Z36	X37	Y37	Z37	X38	Y38	Z38	X39	Y39	Z39	X40	Y40	Z40	X41	Y41	Z41	X42	Y42	Z42	X43	Y43	Z43	X44	Y44	Z44	X45	Y45	Z45	X46	Y46	Z46	X47	Y47	Z47	X48	Y48	Z48	X49	Y49	Z49	X50	Y50	Z50	X51	Y51	Z51	X52	Y52	Z52	X53	Y53	Z53	X54	Y54	Z54	X55	Y55	Z55	X56	Y56	Z56	X57	Y57	Z57	X58	Y58	Z58

331	1.655	-59.126	1574.8	375.02	2.0351	944.48	428.88	-2.5663	1395.8	447.43	-12.763	1211	540.35	81.84	970.94	586.24	201.62	834.02	566.41	-81.826	1445.4	310.51	-132.37	993.35	-12.011	-23.718	1081.6	582.44	-96.549	554.95	435.89	-17.58	645.74	419.12	-210.43	1132.8	114.47	-166.52	177.51	314.2	112.68	711.71	113.88	-69.625	739.94	467.5	-109.76	358.69	326.44	-116.98	451.75	415.07	-101.02	37.269	268.09	-141.83	264.23	395.51	-127.75	32.223	358.58	-135.21	269.52	322.67	-64.021	1438.5	130.73	96.124	597.26	101.5	-201.33	1133.4	35.455	190.39	893.77	526.79	50.36	673.66	85.458	-153.84	875.3	-3.7248	-177.86	967.16	221.53	-179.14	971.37	326.22	181.81	403.83	173.42	-182.87	1139	285.41	-76.446	887.89	17.573	128.56	490.86	120.21	136.19	855.26	568.04	-54.575	1583.8	236.72	157.12	220.34	191.49	128.78	311.09	121.82	124.28	1614.7	349.64	1.3074	759.07	82.977	167.89	312.11	182.86	247.11	65.023	229.38	125.76	1613.8	268.1	-143.52	1348.1	411.89	126.64	117.93	256.89	-81.672	645.66	455.3	-5.2525	951.81	124.54	45.158	53.67	232.47	82.369	97.574	178.17	50.108	1364.6	279.62	-85.067	835.24	-30.271	214.01	55.345	154.61	-245.1	85.48	355.2	282	78.242	203.31	-44.438	25.11	288.49	-223.19	100.79	267.27	-146.93	1254.6	42.667	-49.391	1043.8	494.36	-303.36	42.831	315.22
332	1.66	-52.771	1573.9	374.72	7.6794	943.48	429.07	3.8948	1394.9	447.54	-5.727	1210.3	540.55	91.29	971.64	586.39	212.9	836.6	565.88	-75.388	1444.8	310.57	-128.31	992.27	-11.909	-15.782	1080.8	583.04	-92.795	554.41	435.94	-13.102	644.66	419.15	-204.59	1132.1	115.26	-165.62	177.17	315.23	119.04	710.68	114.2	-64.522	739.3	467.56	-107.85	358.12	326.56	-114.12	451.34	415.18	-101.01	37.285	268.08	-140.71	264.07	395.6	-127.67	32.176	358.64	-133.8	269.37	322.14	-57.468	1437.4	130.88	102.22	596.22	102.15	-195.77	1132.6	36.024	200.77	896.26	526.5	56.916	672.8	85.451	-150.76	874.49	-3.5986	-171.24	966.5	221.07	-172.85	970.41	325.81	189.95	404.14	174.09	-176.24	1137.9	285.27	-73.263	886.09	16.936	134.33	489.27	120.94	147.22	856.67	567.77	-48.499	1582.5	236.37	172.7	219.74	191.58	140.67	309.34	122.25	130.68	1614	349.1	7.5962	757.74	82.867	179.71	311.99	183.37	268.83	66.953	229.82	131.94	1613	267.54	-137.26	1347.2	411.77	146.4	116.2	257.01	-77.223	645.11	455.38	1.8486	950.63	124.44	67.18	49.354	232.57	102.76	94.242	178.17	56.409	1363.5	279.61	-82.435	833.78	-30.659	235.83	55.708	154.97	-244.68	85.919	355.15	303.14	81.327	203.42	-44.36	25.104	288.51	-222.83	100.98	267.43	-140.6	1253.6	42.751	-40.752	1042.9	494.81	-303.35	43.425	315.31
333	1.665	-46.231	1573.2	374.36	13.491	942.64	429.21	10.488	1394	447.54	1.2182	1209.5	540.73	100.79	972.19	586.51	224.26	839.14	565.58	-68.928	1443.6	310.58	-124.1	990.99	-11.964	-7.8207	1080.2	583.42	-88.864	553.92	435.9	-8.8805	643.69	419.19	-198.83	1131.3	115.82	-164.67	177.02	315.97	125.2	709.37	114.63	-59.412	738.68	467.61	-105.93	357.84	326.42	-111.05	450.93	415.16	-100.97	37.28	268.1	-138.9	263.64	395.49	-127.62	32.245	358.84	-132.43	269.14	322.03	-51.135	1436.4	130.69	108.28	594.99	102.69	-189.91	1131.8	36.697	211.14	898.75	526.46	63.386	671.68	85.607	-147.8	873.22	-3.6522	-164.64	965.08	220.88	-166.43	969.52	325.24	197.87	404.3	174.77	-169.45	1136.9	284.95	-69.565	884.34	16.596	139.96	487.4	121.79	158.28	858.05	567.44	-42.102	1581.2	235.99	188.15	219.54	191.54	152.38	307.83	122.54	136.82	1613.4	348.68	15.412	757.34	81.751	191.11	311.9	183.75	290	69.453	230.17	138.46	1612.4	267.22	-130.72	1346.1	411.74	166.24	114.39	257.17	-72.719	644.64	455.46	8.6734	949.61	124.31	89.052	45.665	232.56	122.71	91.231	178.26	62.708	1362.6	279.6	-79.702	832.03	-31.13	257.45	56.418	155.25	-244.16	86.473	355.55	324.01	84.479	203.77	-44.353	25.055	288.46	-222.55	101.32	267.18	-134.5	1252.6	43.23	-32.352	1041.8	495.22	-303.28	43.959	315.61
334	1.67	-40.095	1572.2	374.04	19.449	941.62	429.37	17.064	1393.2	447.47	8.4197	1208.9	540.85	110.11	972.81	586.39	235.54	841.5	565.26	-62.324	1442.6	310.4	-119.77	989.61	-11.866	0.2853	1079.4	583.85	-84.976	553.48	435.99	-4.7061	642.65	419.23	-192.53	1130.4	116.26	-163.81	176.81	315.8	131.31	707.85	115.03	-54.196	737.89	467.79	-103.96	357.33	326.57	-108.75	450.55	415.22	-100.93	37.296	268.11	-137.79	263.43	395.66	-127.48	31.964	359.16	-130.96	268.81	322.27	-44.82	1435.4	130.82	114.08	593.54	103.33	-183.98	1131.1	37.106	221.41	900.99	526.24	69.585	670.4	85.812	-144.5	872.2	-3.4596	-157.92	964.21	220.08	-160.04	968.33	324.79	205.57	404.38	175.3	-163.27	1135.9	284.49	-65.919	882.56	16.178	145.61	485.56	122.58	169.02	859.54	566.99	-35.537	1580.1	235.67	203.25	219.44	191.56	163.96	306.47	122.84	143.07	1612.7	348.32	22.368	756.37	81.029	202.45	311.62	184.18	310.83	72.068	230.59	144.61	1611.6	266.8	-124.43	1345.2	411.75	185.53	113.53	256.71	-68.459	643.95	455.62	15.473	948.61	124.39	110.51	42.711	232.44	142.92	88.77	178.38	69.422	1361.6	279.66	-76.97	830.43	-31.663	278.96	57.595	155.52	-243.78	86.928	355.71	344.58	87.735	204.24	-44.31	25.04	288.39	-222.12	101.68	267.32	-128.79	1251.5	43.479	-24.258	1040.8	495.77	-303.15	44.736	315.74
